<?xml version="1.0" encoding="utf-8"?>
<!-- Generator: Adobe Illustrator 22.1.0, SVG Export Plug-In . SVG Version: 6.00 Build 0)  -->
<svg version="1.1" id="Layer_1" xmlns="http://www.w3.org/2000/svg" xmlns:xlink="http://www.w3.org/1999/xlink" x="0px" y="0px"
	 width="282.26px" height="300.2px" viewBox="0 0 282.26 300.2" enable-background="new 0 0 282.26 300.2" xml:space="preserve">
<path fill="#EE7624" d="M282.16,114.3C282.16,50,182.63,0.1,93.86,0.1c-56,0-93.77,16.08-93.77,16.08l1.42,6.36
	c0,0,24.2-2.34,42.9-2.34c72.02,0,172.48,45.63,172.48,100.67c0,34.97-41.42,53.2-62.68,60.25V60.3
	c-26.44-22.15-66.75-22.84-66.75-22.84v212.83c0,34.1-12.4,39.07-18.67,43.35v6.47h104.08v-6.47c-6.25-4.28-18.66-9.25-18.66-43.35
	v-50.44C197.42,196.47,282.16,174.35,282.16,114.3z"/>
<path fill="#00205C" d="M275.58,114.3c0-60.6-97.68-107.61-181.72-107.61c-25.83,0-47.73,3.55-63.62,7.26
	c4.76-0.21,9.61-0.34,14.18-0.34c62.79,0,179.07,41.33,179.07,107.26c0,45.38-59.15,64.62-75.85,69.15V63.47
	C129.7,49.8,105.59,45.73,94.06,44.53v205.75c0,25.4-6.43,36.58-13.89,43.24h81.36c-7.47-6.66-13.89-17.85-13.89-43.24V193.7
	C177.97,192.43,275.58,175.05,275.58,114.3"/>
</svg>
